<svg viewBox="0 0 36 36" xmlns="http://www.w3.org/2000/svg" xmlns:xlink="http://www.w3.org/1999/xlink"><style>:root&gt;svg{display:none}:root&gt;svg:target{display:block}</style><svg fill="none" viewBox="0 0 26 32" id="css--blueApple" xmlns="http://www.w3.org/2000/svg"><path d="M21.092 16.507a7.054 7.054 0 013.36-5.919 7.22 7.22 0 00-5.69-3.075c-2.393-.252-4.714 1.432-5.934 1.432-1.243 0-3.121-1.407-5.143-1.366a7.576 7.576 0 00-6.376 3.889c-2.757 4.772-.7 11.787 1.94 15.645 1.322 1.89 2.866 4 4.886 3.925 1.977-.082 2.716-1.261 5.102-1.261 2.364 0 3.057 1.26 5.119 1.213 2.121-.034 3.458-1.898 4.733-3.805a15.628 15.628 0 002.164-4.408 6.816 6.816 0 01-4.16-6.27zM17.199 4.976A6.945 6.945 0 0018.787 0a7.067 7.067 0 00-4.572 2.366 6.608 6.608 0 00-1.63 4.791 5.843 5.843 0 004.614-2.181z" fill="#130F49"/></svg><svg fill="none" viewBox="0 0 36 36" id="css--percent" xmlns="http://www.w3.org/2000/svg"><path d="M12.277 16.125a4.812 4.812 0 003.578-1.05 4.868 4.868 0 001.792-3.278 4.815 4.815 0 00-1.05-3.577 4.88 4.88 0 00-8.647 2.542A4.815 4.815 0 009 14.34a4.861 4.861 0 003.277 1.785zm-2.085-5.123a2.63 2.63 0 01.96-1.762 2.582 2.582 0 011.643-.578c.097 0 .187.008.285.015a2.61 2.61 0 011.762.968c.443.547.638 1.23.563 1.927a2.631 2.631 0 01-.96 1.763c-.54.442-1.23.637-1.928.562a2.628 2.628 0 01-2.325-2.895zM27.42 21.66a4.88 4.88 0 00-8.648 2.542 4.815 4.815 0 001.05 3.578 4.868 4.868 0 003.81 1.822c1.11 0 2.175-.375 3.045-1.08 2.093-1.695 2.43-4.77.743-6.862zm-2.153 5.1a2.595 2.595 0 01-1.927.562 2.61 2.61 0 01-1.763-.967 2.595 2.595 0 01-.562-1.928 2.614 2.614 0 012.602-2.34c.765 0 1.53.338 2.048.975a2.638 2.638 0 01-.398 3.698zM28.2 9.472a1.122 1.122 0 00-1.582-.172L7.927 24.36a1.122 1.122 0 00-.173 1.582c.225.278.547.42.877.42.248 0 .495-.082.705-.247l18.69-15.053a1.132 1.132 0 00.173-1.59z" fill="#130F49"/></svg><svg fill="none" viewBox="0 0 21 21" id="css--points" xmlns="http://www.w3.org/2000/svg"><path d="M3.652 7.304a3.652 3.652 0 100-7.304 3.652 3.652 0 000 7.304zm0 13.696a3.652 3.652 0 100-7.304 3.652 3.652 0 000 7.304zM17.348 7.304a3.652 3.652 0 100-7.304 3.652 3.652 0 000 7.304zm0 13.696a3.652 3.652 0 100-7.304 3.652 3.652 0 000 7.304z" fill="#0B0736"/></svg><svg fill="none" viewBox="0 0 36 36" id="css--target" xmlns="http://www.w3.org/2000/svg"><path d="M18 13.125A4.884 4.884 0 0013.125 18 4.884 4.884 0 0018 22.875 4.884 4.884 0 0022.875 18 4.884 4.884 0 0018 13.125zm0 7.5A2.628 2.628 0 0115.375 18 2.628 2.628 0 0118 15.375 2.628 2.628 0 0120.625 18 2.628 2.628 0 0118 20.625zm-15-8.25c.623 0 1.125-.502 1.125-1.125V6.375H9a1.124 1.124 0 100-2.25H3c-.623 0-1.125.503-1.125 1.125v6c0 .623.502 1.125 1.125 1.125zm0 19.5h6a1.124 1.124 0 100-2.25H4.125V24.75c0-.622-.502-1.125-1.125-1.125s-1.125.503-1.125 1.125v6c0 .622.502 1.125 1.125 1.125zm30-8.25c-.623 0-1.125.503-1.125 1.125v4.875H27a1.124 1.124 0 100 2.25h6c.623 0 1.125-.503 1.125-1.125v-6c0-.622-.502-1.125-1.125-1.125zm0-19.5h-6a1.124 1.124 0 100 2.25h4.875v4.875c0 .623.502 1.125 1.125 1.125s1.125-.502 1.125-1.125v-6c0-.622-.502-1.125-1.125-1.125z" fill="#130F49"/></svg><svg fill="none" viewBox="0 0 26 32" id="css--whiteApple" xmlns="http://www.w3.org/2000/svg"><path d="M21.092 16.506a7.054 7.054 0 013.36-5.918 7.22 7.22 0 00-5.69-3.075c-2.393-.252-4.714 1.432-5.934 1.432-1.243 0-3.121-1.407-5.143-1.366a7.576 7.576 0 00-6.376 3.888c-2.757 4.773-.7 11.788 1.94 15.646 1.322 1.889 2.866 4 4.886 3.924 1.977-.082 2.716-1.26 5.102-1.26 2.364 0 3.057 1.26 5.119 1.213 2.121-.035 3.458-1.898 4.733-3.805a15.628 15.628 0 002.164-4.408 6.817 6.817 0 01-4.16-6.27zm-3.893-11.53A6.945 6.945 0 0018.787 0a7.067 7.067 0 00-4.572 2.366 6.608 6.608 0 00-1.63 4.791 5.843 5.843 0 004.614-2.181z" fill="#fff"/></svg></svg>